<svg xmlns="http://www.w3.org/2000/svg" class="svg-logo" width="2400" height="2400" viewBox="0 0 630 430" style="height: auto;"><rect width="630" height="630" y="-100" rx="0" ry="0" fill="transparent" fill-opacity="0"></rect><g data-element="wrapper" transform="translate(47.249999999996966 12.699999999997715) scale(0.8500000000000096)"><g ><g data-element="icon" transform="scale(0.14166666666666666) translate(479.20908209856816 1217.6470588235293)"><path id="color_x5F_2_13_" d="M494.598,279.867H451.34v-43.257h31.207v-44.895h61.759v61.759h-49.708V279.867z     M556.769,84.758h-37.737v37.737h37.737V84.758z M579.742,484.759c-22.147,20.775-102.406,20.222-158.556,19.925H71.137    c-25.081,0-45.412-20.332-45.412-45.412c0,0,0.137-266.84,0.202-296.627c-4.632-24.141-6.524-49.196-5.311-75.084    C21.621,66.113,33.104,21.715,71.005,0c-24.613,38.744-29.7,88.776-10.099,154.764c19.601,65.988,65.771,123.661,117.633,168.927    c83.909,73.236,179.016,129.061,283.624,151.142c-72.668-28.572-143.928-71.409-222.924-132.359    c-76.956-59.377-135.113-139.195-155.348-221.17h252.313V106.45c0-1.559,1.264-2.823,2.823-2.823h58.074    c1.559,0,2.823,1.264,2.823,2.823v58.074c0,1.559-1.264,2.823-2.823,2.823h-38.589v50.767h22.265v14.985    c0,0.512,0.415,0.927,0.927,0.927h14.997v38.935h32.784v32.62h79.878v31.117h23.704v122.574c0,9.073-2.678,17.512-7.264,24.602    C543.539,485.181,561.52,485.508,579.742,484.759z M331.826,174.416h-17.298v-24.193h-38.656v38.656h21.358v20.134h34.597V174.416z     M377.647,272.961h-34.008v34.008h34.008V272.961z M463.618,366.16h36.221v-36.221h-36.221V366.16z" fill="#353743" fill-opacity="1"></path> <path id="color_x5F_1_20_" d="M385.612,584.988c7.275,3.975,4.487,15.012-3.804,15.012H176.981    c-8.29,0-11.079-11.036-3.803-15.012c18.024-9.849,37.378-22.532,37.378-31.587c0-16.945,0-25.417,0-25.417h137.678    c0,0,0,8.472,0,25.417C348.234,562.456,367.588,575.14,385.612,584.988z M429.483,233.481v-47.618c0-0.301-0.244-0.544-0.544-0.544    H381.32c-0.301,0-0.544,0.244-0.544,0.544v47.618c0,0.301,0.244,0.544,0.544,0.544h47.619    C429.239,234.025,429.483,233.782,429.483,233.481z M480.359,156.17h-41.367v-41.367h41.367V156.17z M377.647,306.969h-34.008    v-34.008h34.008V306.969z M314.528,188.879h-38.656v-38.656h38.656V188.879z M556.769,336.698h-47.408V289.29h47.408V336.698z" fill="#83578f" fill-opacity="1"></path></g><path d="M187.80 196.15L199.83 240.63Q199.96 241.14 199.96 241.34L199.96 241.34Q199.96 243 198.04 243L198.04 243L194.77 243Q192.92 243 192.47 241.14L192.47 241.14L189.91 230.52L176.79 230.52L174.17 241.14Q173.72 243 171.86 243L171.86 243L168.60 243Q166.68 243 166.68 241.34L166.68 241.34Q166.68 241.14 166.81 240.63L166.81 240.63L178.84 196.15Q179.29 194.36 181.21 194.36L181.21 194.36L185.43 194.36Q187.35 194.36 187.80 196.15L187.80 196.15ZM183.32 203.64L177.69 226.68L188.95 226.68L183.32 203.64ZM202.07 236.34L202.07 236.34Q201.88 235.96 201.88 235.64L201.88 235.64Q201.88 234.87 202.58 234.33Q203.29 233.78 204.18 233.78L204.18 233.78L207.89 233.78Q209.43 233.78 209.88 235.58L209.88 235.58Q210.39 237.43 212.25 238.58Q214.10 239.74 217.81 239.74L217.81 239.74Q221.91 239.74 223.48 238.26Q225.05 236.79 225.05 234.04L225.05 234.04Q225.05 231.22 222.93 229.59Q220.82 227.96 216.98 228.09L216.98 228.09Q211.61 228.22 208.44 227.10Q205.27 225.98 203.89 223.99Q202.52 222.01 202.52 219.58L202.52 219.58Q202.52 215.03 206.58 212.38Q210.65 209.72 218.07 209.72L218.07 209.72Q226.33 209.72 230.61 213.24L230.61 213.24Q232.34 214.65 232.34 215.74L232.34 215.74Q232.34 216.38 231.83 216.70L231.83 216.70L230.74 217.53Q230.10 217.98 229.53 217.98L229.53 217.98Q228.89 217.98 228.50 217.66L228.50 217.66Q225.75 215.61 223.22 214.58Q220.69 213.56 218.07 213.56L218.07 213.56Q214.49 213.56 212.60 215.26Q210.71 216.95 210.71 219.58L210.71 219.58Q210.71 222.07 212.15 223.16Q213.59 224.25 216.98 224.25L216.98 224.25Q221.33 224.25 225.05 225.40Q228.76 226.55 231.00 228.76Q233.24 230.97 233.24 234.04L233.24 234.04Q233.24 236.79 231.25 238.97Q229.27 241.14 225.78 242.36Q222.29 243.58 217.81 243.58L217.81 243.58Q211.99 243.58 207.73 241.46Q203.48 239.35 202.07 236.34ZM245.53 230.84L245.53 240.82Q245.53 241.72 244.89 242.36Q244.25 243 243.35 243L243.35 243L239.89 243Q239.00 243 238.36 242.36Q237.72 241.72 237.72 240.82L237.72 240.82L237.72 196.54Q237.72 195.64 238.36 195Q239.00 194.36 239.89 194.36L239.89 194.36L243.35 194.36Q244.25 194.36 244.89 195Q245.53 195.64 245.53 196.54L245.53 196.54L245.53 223.80L261.91 210.55Q262.42 210.10 263.13 210.10L263.13 210.10Q263.64 210.10 264.09 210.36L264.09 210.36L264.98 210.87Q266.33 211.64 266.33 212.98L266.33 212.98Q266.33 214.07 265.30 214.90L265.30 214.90L251.16 226.36L265.11 238.39Q266.20 239.29 266.20 240.44L266.20 240.44Q266.20 241.59 265.11 242.17L265.11 242.17L263.57 243Q263.19 243.19 262.68 243.19L262.68 243.19Q261.91 243.19 261.40 242.74L261.40 242.74L246.93 230.26Q246.74 230.14 246.61 229.94L246.61 229.94L245.53 230.84ZM301.33 212.79L286.17 255.29Q285.59 257.02 283.73 257.02L283.73 257.02L281.43 257.02Q279.51 257.02 279.51 255.48L279.51 255.48Q279.51 255.03 279.70 254.58L279.70 254.58L283.48 243.45Q283.09 243.06 282.77 242.42L282.77 242.42L269.46 212.86Q269.21 212.34 269.21 211.83L269.21 211.83Q269.21 210.36 271.06 210.36L271.06 210.36L274.84 210.36Q276.57 210.36 277.27 212.02L277.27 212.02L286.29 235.06L294.10 212.09Q294.68 210.36 296.47 210.36L296.47 210.36L299.61 210.36Q301.53 210.36 301.53 211.90L301.53 211.90Q301.53 212.28 301.33 212.79L301.33 212.79ZM357.01 233.72L357.01 233.72Q357.53 231.93 359.57 231.93L359.57 231.93L363.09 231.93Q363.93 231.93 364.41 232.57Q364.89 233.21 364.89 233.98L364.89 233.98Q364.89 234.62 364.63 235.06L364.63 235.06Q363.48 237.62 361.11 239.58Q358.74 241.53 355.73 242.58Q352.73 243.64 349.65 243.64L349.65 243.64Q344.09 243.64 339.54 240.73Q335.00 237.82 332.34 232.57Q329.69 227.32 329.69 220.34L329.69 220.34Q329.69 215.03 331.19 210.23Q332.69 205.43 335.38 201.72Q338.07 198.01 341.56 195.86Q345.05 193.72 348.95 193.72L348.95 193.72Q351.57 193.72 354.33 194.84Q357.08 195.96 359.54 197.85Q362.01 199.74 363.83 202.10Q365.65 204.47 366.36 206.97L366.36 206.97Q366.42 207.10 366.42 207.29Q366.42 207.48 366.42 207.61L366.42 207.61Q366.42 208.44 365.91 209.05Q365.40 209.66 364.50 209.66L364.50 209.66L360.53 209.66Q358.74 209.66 358.23 207.61L358.23 207.61Q357.65 205.24 356.31 202.94Q354.97 200.63 353.11 199.10Q351.25 197.56 348.95 197.56L348.95 197.56Q346.39 197.56 344.31 199.58Q342.23 201.59 340.82 204.95Q339.41 208.31 338.65 212.31Q337.88 216.31 337.88 220.34L337.88 220.34Q337.88 224.50 338.90 228.06Q339.93 231.61 341.65 234.23Q343.38 236.86 345.46 238.33Q347.54 239.80 349.65 239.80L349.65 239.80Q350.87 239.80 352.31 239.26Q353.75 238.71 355.03 237.40Q356.31 236.09 357.01 233.72ZM382.61 209.72L382.61 209.72Q387.35 209.72 390.93 211.99Q394.52 214.26 396.53 218.17Q398.55 222.07 398.55 227L398.55 227Q398.55 231.74 396.66 235.51Q394.77 239.29 391.38 241.46Q387.99 243.64 383.45 243.64L383.45 243.64Q378.65 243.64 375.03 241.43Q371.41 239.22 369.40 235.38Q367.38 231.54 367.38 226.68L367.38 226.68Q367.38 221.75 369.27 217.91Q371.16 214.07 374.58 211.90Q378.01 209.72 382.61 209.72ZM382.61 213.56L382.61 213.56Q380.12 213.56 378.33 215.26Q376.53 216.95 375.57 219.93Q374.61 222.90 374.61 226.68L374.61 226.68Q374.61 233.46 377.17 236.63Q379.73 239.80 383.45 239.80L383.45 239.80Q386.33 239.80 388.05 237.94Q389.78 236.09 390.55 233.14Q391.32 230.20 391.32 227L391.32 227Q391.32 221.11 389.01 217.34Q386.71 213.56 382.61 213.56ZM432.47 240.70L432.47 240.70Q432.47 241.72 431.83 242.36Q431.19 243 430.29 243L430.29 243L426.71 243Q425.81 243 425.17 242.33Q424.53 241.66 424.53 240.63L424.53 240.63Q424.53 235.90 424.53 233.30Q424.53 230.71 424.50 229.34Q424.47 227.96 424.47 227L424.47 227Q424.47 220.60 423.09 217.08Q421.72 213.56 418.58 213.56L418.58 213.56Q414.61 213.56 412.76 215.26Q410.90 216.95 410.90 220.73L410.90 220.73L410.90 240.82Q410.90 241.72 410.26 242.36Q409.62 243 408.73 243L408.73 243L404.89 243Q403.99 243 403.35 242.36Q402.71 241.72 402.71 240.82L402.71 240.82L402.71 211.90Q402.71 211 403.35 210.36Q403.99 209.72 404.89 209.72L404.89 209.72L408.73 209.72Q410.13 209.72 410.71 210.94L410.71 210.94Q414.23 209.72 418.58 209.72L418.58 209.72Q423.13 209.72 425.81 211.13Q428.50 212.54 429.91 215Q431.32 217.46 431.83 220.60Q432.34 223.74 432.41 227.19L432.41 227.19Q432.47 228.15 432.47 229.53Q432.47 230.90 432.47 233.46Q432.47 236.02 432.47 240.70ZM466.90 196.54L466.90 240.82Q466.90 241.72 466.26 242.36Q465.62 243 464.73 243L464.73 243L461.53 243Q460.50 243 459.93 242.39Q459.35 241.78 459.35 240.95L459.35 240.95Q457.62 242.23 455.32 242.94Q453.01 243.64 450.13 243.64L450.13 243.64Q445.59 243.64 442.33 241.50Q439.06 239.35 437.37 235.61Q435.67 231.86 435.67 227L435.67 227Q435.67 222.07 437.59 218.17Q439.51 214.26 442.93 211.99Q446.36 209.72 450.97 209.72L450.97 209.72Q453.53 209.72 455.61 210.49Q457.69 211.26 459.35 212.66L459.35 212.66L459.35 196.54Q459.35 195.64 459.99 195Q460.63 194.36 461.53 194.36L461.53 194.36L464.73 194.36Q465.62 194.36 466.26 195Q466.90 195.64 466.90 196.54L466.90 196.54ZM450.97 213.56L450.97 213.56Q448.98 213.56 447.22 215.45Q445.46 217.34 444.34 220.41Q443.22 223.48 443.22 227L443.22 227Q443.22 230.52 444.18 233.43Q445.14 236.34 446.74 238.07Q448.34 239.80 450.13 239.80L450.13 239.80Q454.17 239.80 456.41 236.18Q458.65 232.57 458.65 226.68L458.65 226.68Q458.65 223.29 457.56 220.31Q456.47 217.34 454.71 215.45Q452.95 213.56 450.97 213.56ZM482.45 198.46L482.45 202.23Q482.45 203.13 481.81 203.77Q481.17 204.41 480.28 204.41L480.28 204.41L476.44 204.41Q475.54 204.41 474.90 203.77Q474.26 203.13 474.26 202.23L474.26 202.23L474.26 198.46Q474.26 197.56 474.90 196.92Q475.54 196.28 476.44 196.28L476.44 196.28L480.28 196.28Q481.17 196.28 481.81 196.92Q482.45 197.56 482.45 198.46L482.45 198.46ZM482.45 212.54L482.45 240.82Q482.45 241.72 481.81 242.36Q481.17 243 480.28 243L480.28 243L476.44 243Q475.54 243 474.90 242.36Q474.26 241.72 474.26 240.82L474.26 240.82L474.26 212.54Q474.26 211.64 474.90 211Q475.54 210.36 476.44 210.36L476.44 210.36L480.28 210.36Q481.17 210.36 481.81 211Q482.45 211.64 482.45 212.54L482.45 212.54ZM520.21 240.70L520.21 240.70Q520.21 241.72 519.57 242.36Q518.93 243 518.04 243L518.04 243L514.45 243Q513.56 243 512.92 242.33Q512.28 241.66 512.28 240.63L512.28 240.63Q512.28 235.90 512.28 233.30Q512.28 230.71 512.25 229.34Q512.21 227.96 512.21 227L512.21 227Q512.21 220.60 510.84 217.08Q509.46 213.56 506.33 213.56L506.33 213.56Q502.36 213.56 500.50 215.26Q498.65 216.95 498.65 220.73L498.65 220.73L498.65 240.82Q498.65 241.72 498.01 242.36Q497.37 243 496.47 243L496.47 243L492.63 243Q491.73 243 491.09 242.36Q490.45 241.72 490.45 240.82L490.45 240.82L490.45 211.90Q490.45 211 491.09 210.36Q491.73 209.72 492.63 209.72L492.63 209.72L496.47 209.72Q497.88 209.72 498.45 210.94L498.45 210.94Q501.97 209.72 506.33 209.72L506.33 209.72Q510.87 209.72 513.56 211.13Q516.25 212.54 517.65 215Q519.06 217.46 519.57 220.60Q520.09 223.74 520.15 227.19L520.15 227.19Q520.21 228.15 520.21 229.53Q520.21 230.90 520.21 233.46Q520.21 236.02 520.21 240.70ZM528.53 250.94L528.53 250.94Q527.83 250.23 527.83 249.40L527.83 249.40Q527.83 247.74 529.75 247.10L529.75 247.10L531.80 246.46Q531.99 246.39 532.31 246.39L532.31 246.39Q533.40 246.39 534.04 247.35L534.04 247.35Q535.70 249.78 536.82 250.55Q537.94 251.32 539.73 251.32L539.73 251.32Q543.19 251.32 545.14 249.82Q547.09 248.31 547.09 245.18L547.09 245.18L547.09 240.70Q545.43 242.10 543.35 242.87Q541.27 243.64 538.71 243.64L538.71 243.64Q534.17 243.64 530.71 241.37Q527.25 239.10 525.33 235.16Q523.41 231.22 523.41 226.30L523.41 226.30Q523.41 221.43 525.14 217.72Q526.87 214.01 530.10 211.86Q533.33 209.72 537.88 209.72L537.88 209.72Q540.76 209.72 543.06 210.42Q545.37 211.13 547.09 212.41L547.09 212.41Q547.16 211.51 547.73 210.94Q548.31 210.36 549.27 210.36L549.27 210.36L552.47 210.36Q553.37 210.36 554.01 211Q554.65 211.64 554.65 212.54L554.65 212.54L554.65 245.18Q554.65 248.12 552.69 250.36Q550.74 252.60 547.35 253.88Q543.96 255.16 539.73 255.16L539.73 255.16Q532.89 255.16 528.53 250.94ZM538.71 239.74L538.71 239.74Q540.69 239.74 542.61 238.39Q544.53 237.05 545.78 234.14Q547.03 231.22 547.03 226.68L547.03 226.68Q547.03 219.70 544.66 216.66Q542.29 213.62 537.88 213.62L537.88 213.62Q536.28 213.62 534.68 215Q533.08 216.38 532.02 219.19Q530.97 222.01 530.97 226.30L530.97 226.30Q530.97 230.14 531.77 233.18Q532.57 236.22 534.26 237.98Q535.96 239.74 538.71 239.74Z" data-element="company-name" data-text-path="" data-text="Asky Conding" data-font-family="JP Yusei Magic" fill="#83578f" fill-opacity="1"></path><path d="M215.82 273.55L225.41 273.55Q225.61 273.86 225.77 274.40Q225.92 274.93 225.92 275.51L225.92 275.51Q225.92 276.63 225.45 277.10Q224.97 277.58 224.17 277.58L224.17 277.58L218.12 277.58L218.12 280.83L224.43 280.83Q224.66 281.15 224.82 281.67Q224.97 282.19 224.97 282.76L224.97 282.76Q224.97 283.86 224.50 284.33Q224.02 284.81 223.22 284.81L223.22 284.81L218.18 284.81L218.18 290.88Q217.86 290.97 217.18 291.06Q216.51 291.14 215.84 291.14L215.84 291.14Q215.18 291.14 214.68 291.04Q214.17 290.94 213.83 290.68Q213.48 290.42 213.31 289.96Q213.14 289.50 213.14 288.75L213.14 288.75L213.14 276.23Q213.14 274.99 213.86 274.27Q214.58 273.55 215.82 273.55L215.82 273.55ZM227.48 285.44L227.48 277.20Q227.77 277.12 228.39 277.03Q229.01 276.95 229.67 276.95L229.67 276.95Q230.30 276.95 230.81 277.03Q231.31 277.12 231.66 277.38Q232.00 277.64 232.19 278.08Q232.38 278.53 232.38 279.25L232.38 279.25L232.38 285.44Q232.38 286.62 232.95 287.13Q233.53 287.63 234.62 287.63L234.62 287.63Q235.28 287.63 235.70 287.52Q236.12 287.40 236.35 287.28L236.35 287.28L236.35 277.20Q236.64 277.12 237.26 277.03Q237.88 276.95 238.54 276.95L238.54 276.95Q239.17 276.95 239.68 277.03Q240.18 277.12 240.53 277.38Q240.87 277.64 241.06 278.08Q241.25 278.53 241.25 279.25L241.25 279.25L241.25 288.00Q241.25 289.44 240.04 290.16L240.04 290.16Q239.03 290.80 237.63 291.13Q236.24 291.46 234.59 291.46L234.59 291.46Q233.04 291.46 231.73 291.12Q230.42 290.77 229.47 290.05Q228.52 289.33 228.00 288.19Q227.48 287.05 227.48 285.44L227.48 285.44ZM249.22 274.27L249.22 290.97Q248.91 291.03 248.29 291.13Q247.67 291.23 247.04 291.23L247.04 291.23Q246.40 291.23 245.90 291.14Q245.39 291.06 245.05 290.80Q244.70 290.54 244.52 290.09Q244.33 289.65 244.33 288.93L244.33 288.93L244.33 272.22Q244.64 272.16 245.26 272.06Q245.88 271.96 246.52 271.96L246.52 271.96Q247.15 271.96 247.65 272.05Q248.16 272.14 248.50 272.40Q248.85 272.65 249.04 273.10Q249.22 273.55 249.22 274.27L249.22 274.27ZM257.29 274.27L257.29 290.97Q256.97 291.03 256.35 291.13Q255.73 291.23 255.10 291.23L255.10 291.23Q254.47 291.23 253.96 291.14Q253.46 291.06 253.11 290.80Q252.77 290.54 252.58 290.09Q252.39 289.65 252.39 288.93L252.39 288.93L252.39 272.22Q252.71 272.16 253.33 272.06Q253.95 271.96 254.58 271.96L254.58 271.96Q255.21 271.96 255.72 272.05Q256.22 272.14 256.57 272.40Q256.91 272.65 257.10 273.10Q257.29 273.55 257.29 274.27L257.29 274.27ZM272.18 286.82L272.18 286.82Q272.18 289.01 270.54 290.25Q268.89 291.49 265.70 291.49L265.70 291.49Q264.49 291.49 263.45 291.32Q262.41 291.14 261.68 290.78Q260.95 290.42 260.53 289.88Q260.11 289.33 260.11 288.58L260.11 288.58Q260.11 287.89 260.40 287.41Q260.69 286.94 261.09 286.62L261.09 286.62Q261.92 287.08 263.00 287.44Q264.08 287.80 265.50 287.80L265.50 287.80Q266.39 287.80 266.86 287.54Q267.34 287.28 267.34 286.85L267.34 286.85Q267.34 286.45 266.99 286.22Q266.65 285.99 265.84 285.84L265.84 285.84L264.98 285.67Q262.47 285.18 261.25 284.13Q260.02 283.08 260.02 281.12L260.02 281.12Q260.02 280.06 260.48 279.19Q260.95 278.33 261.78 277.75Q262.62 277.18 263.78 276.86Q264.95 276.54 266.36 276.54L266.36 276.54Q267.43 276.54 268.36 276.70Q269.30 276.86 269.99 277.18Q270.68 277.49 271.08 278.00Q271.49 278.50 271.49 279.19L271.49 279.19Q271.49 279.85 271.24 280.33Q271.00 280.80 270.62 281.12L270.62 281.12Q270.39 280.98 269.93 280.82Q269.47 280.66 268.92 280.53Q268.38 280.40 267.81 280.32Q267.25 280.23 266.79 280.23L266.79 280.23Q265.84 280.23 265.32 280.44Q264.80 280.66 264.80 281.12L264.80 281.12Q264.80 281.44 265.09 281.64Q265.38 281.84 266.19 282.01L266.19 282.01L267.08 282.22Q269.84 282.85 271.01 283.96Q272.18 285.07 272.18 286.82ZM279.44 281.84L279.44 286.19Q279.44 286.94 279.91 287.26Q280.39 287.57 281.25 287.57L281.25 287.57Q281.68 287.57 282.14 287.50Q282.60 287.43 282.95 287.31L282.95 287.31Q283.21 287.63 283.40 288.02Q283.58 288.41 283.58 288.96L283.58 288.96Q283.58 290.05 282.76 290.74Q281.94 291.43 279.87 291.43L279.87 291.43Q277.33 291.43 275.96 290.28Q274.60 289.13 274.60 286.54L274.60 286.54L274.60 274.21Q274.91 274.12 275.50 274.02Q276.09 273.92 276.76 273.92L276.76 273.92Q278.02 273.92 278.73 274.37Q279.44 274.81 279.44 276.25L279.44 276.25L279.44 278.10L283.21 278.10Q283.38 278.41 283.54 278.89Q283.70 279.36 283.70 279.94L283.70 279.94Q283.70 280.95 283.25 281.40Q282.80 281.84 282.06 281.84L282.06 281.84L279.44 281.84ZM292.05 287.89L292.05 287.89Q292.54 287.89 293.13 287.79Q293.72 287.69 294.01 287.52L294.01 287.52L294.01 285.21L291.93 285.38Q291.13 285.44 290.61 285.73Q290.09 286.02 290.09 286.59L290.09 286.59Q290.09 287.17 290.54 287.53Q290.98 287.89 292.05 287.89ZM291.82 276.57L291.82 276.57Q293.37 276.57 294.66 276.89Q295.94 277.20 296.84 277.85Q297.75 278.50 298.24 279.49Q298.73 280.49 298.73 281.84L298.73 281.84L298.73 288.29Q298.73 289.04 298.31 289.52Q297.90 289.99 297.32 290.34L297.32 290.34Q295.45 291.46 292.05 291.46L292.05 291.46Q290.52 291.46 289.30 291.17Q288.08 290.88 287.20 290.31Q286.32 289.73 285.84 288.84Q285.37 287.95 285.37 286.77L285.37 286.77Q285.37 284.78 286.55 283.71Q287.73 282.65 290.21 282.39L290.21 282.39L293.98 281.99L293.98 281.78Q293.98 280.95 293.24 280.59Q292.51 280.23 291.13 280.23L291.13 280.23Q290.03 280.23 289.00 280.46Q287.96 280.69 287.12 281.04L287.12 281.04Q286.75 280.78 286.49 280.24Q286.23 279.71 286.23 279.13L286.23 279.13Q286.23 278.39 286.59 277.94Q286.95 277.49 287.70 277.18L287.70 277.18Q288.54 276.86 289.67 276.72Q290.81 276.57 291.82 276.57ZM309.62 280.43L309.62 280.43Q308.90 280.43 308.25 280.66Q307.60 280.89 307.13 281.34Q306.65 281.78 306.36 282.45Q306.08 283.11 306.08 284.00L306.08 284.00Q306.08 285.79 307.10 286.68Q308.12 287.57 309.59 287.57L309.59 287.57Q310.45 287.57 311.09 287.37Q311.72 287.17 312.21 286.94L312.21 286.94Q312.79 287.34 313.07 287.82Q313.36 288.29 313.36 288.96L313.36 288.96Q313.36 290.14 312.24 290.78Q311.12 291.43 309.13 291.43L309.13 291.43Q307.31 291.43 305.84 290.90Q304.38 290.37 303.32 289.40Q302.27 288.44 301.70 287.08Q301.12 285.73 301.12 284.09L301.12 284.09Q301.12 282.19 301.74 280.76Q302.36 279.34 303.43 278.41Q304.49 277.49 305.89 277.03Q307.28 276.57 308.84 276.57L308.84 276.57Q310.91 276.57 312.04 277.32Q313.16 278.07 313.16 279.25L313.16 279.25Q313.16 279.80 312.90 280.27Q312.64 280.75 312.30 281.09L312.30 281.09Q311.81 280.86 311.12 280.65Q310.42 280.43 309.62 280.43ZM324.88 283.86L329.49 288.47Q329.35 289.82 328.70 290.54Q328.05 291.26 326.81 291.26L326.81 291.26Q325.89 291.26 325.17 290.81Q324.45 290.37 323.61 289.30L323.61 289.30L320.76 285.73L320.76 290.97Q320.45 291.03 319.83 291.13Q319.21 291.23 318.57 291.23L318.57 291.23Q317.94 291.23 317.44 291.14Q316.93 291.06 316.59 290.80Q316.24 290.54 316.05 290.09Q315.87 289.65 315.87 288.93L315.87 288.93L315.87 272.25Q316.18 272.16 316.80 272.06Q317.42 271.96 318.06 271.96L318.06 271.96Q318.69 271.96 319.19 272.05Q319.70 272.14 320.04 272.40Q320.39 272.65 320.58 273.10Q320.76 273.55 320.76 274.27L320.76 274.27L320.76 281.87L325.72 276.80Q327.21 276.80 328.12 277.46Q329.03 278.13 329.03 279.13L329.03 279.13Q329.03 279.57 328.88 279.93Q328.74 280.29 328.44 280.66Q328.14 281.04 327.66 281.45Q327.19 281.87 326.55 282.42L326.55 282.42L324.88 283.86ZM342.94 277.23L342.94 287.26Q343.26 287.31 343.72 287.36Q344.18 287.40 344.58 287.40L344.58 287.40Q345.56 287.40 346.38 287.11Q347.20 286.82 347.79 286.22Q348.38 285.61 348.71 284.65Q349.04 283.68 349.04 282.33L349.04 282.33Q349.04 279.74 347.84 278.43Q346.63 277.12 344.61 277.12L344.61 277.12Q344.21 277.12 343.79 277.15Q343.37 277.18 342.94 277.23L342.94 277.23ZM344.55 291.46L344.55 291.46Q344.06 291.46 343.43 291.43Q342.80 291.40 342.12 291.32Q341.44 291.23 340.76 291.10Q340.09 290.97 339.51 290.74L339.51 290.74Q337.93 290.14 337.93 288.64L337.93 288.64L337.93 275.19Q337.93 274.58 338.26 274.25Q338.59 273.92 339.17 273.72L339.17 273.72Q340.40 273.32 341.79 273.19Q343.17 273.06 344.26 273.06L344.26 273.06Q346.51 273.06 348.34 273.60Q350.17 274.15 351.48 275.29Q352.79 276.43 353.51 278.16Q354.23 279.88 354.23 282.24L354.23 282.24Q354.23 284.55 353.54 286.26Q352.85 287.98 351.56 289.14Q350.28 290.31 348.50 290.88Q346.71 291.46 344.55 291.46ZM364.14 291.46L364.14 291.46Q362.44 291.46 360.98 290.99Q359.53 290.51 358.45 289.56Q357.37 288.61 356.75 287.17Q356.13 285.73 356.13 283.80L356.13 283.80Q356.13 281.90 356.75 280.53Q357.37 279.16 358.38 278.28Q359.38 277.41 360.68 276.99Q361.98 276.57 363.33 276.57L363.33 276.57Q364.86 276.57 366.11 277.03Q367.36 277.49 368.27 278.30Q369.18 279.11 369.68 280.23Q370.18 281.35 370.18 282.68L370.18 282.68Q370.18 283.66 369.64 284.17Q369.09 284.69 368.11 284.84L368.11 284.84L361.00 285.90Q361.31 286.85 362.29 287.33Q363.27 287.80 364.54 287.80L364.54 287.80Q365.72 287.80 366.77 287.50Q367.82 287.20 368.48 286.80L368.48 286.80Q368.95 287.08 369.26 287.60Q369.58 288.12 369.58 288.70L369.58 288.70Q369.58 289.99 368.37 290.63L368.37 290.63Q367.45 291.12 366.30 291.29Q365.14 291.46 364.14 291.46ZM363.33 280.14L363.33 280.14Q362.64 280.14 362.13 280.37Q361.63 280.60 361.31 280.96Q361.00 281.32 360.84 281.77Q360.68 282.22 360.65 282.68L360.65 282.68L365.58 281.87Q365.49 281.29 364.94 280.72Q364.40 280.14 363.33 280.14ZM381.79 290.63L381.79 290.63Q381.39 290.94 380.61 291.14Q379.83 291.35 378.85 291.35L378.85 291.35Q377.73 291.35 376.91 291.06Q376.09 290.77 375.77 290.14L375.77 290.14Q375.51 289.65 375.15 288.77Q374.79 287.89 374.39 286.81Q373.99 285.73 373.55 284.49Q373.12 283.25 372.73 282.04Q372.34 280.83 372.03 279.71Q371.71 278.59 371.51 277.72L371.51 277.72Q371.91 277.32 372.59 277.02Q373.27 276.72 374.07 276.72L374.07 276.72Q375.08 276.72 375.73 277.13Q376.38 277.55 376.69 278.70L376.69 278.70L377.82 283.11Q378.13 284.40 378.42 285.46Q378.71 286.51 378.85 287.08L378.85 287.08L379.00 287.08Q379.54 284.95 380.15 282.36Q380.75 279.77 381.24 277.26L381.24 277.26Q381.73 277.00 382.35 276.86Q382.97 276.72 383.55 276.72L383.55 276.72Q384.56 276.72 385.25 277.15Q385.94 277.58 385.94 278.64L385.94 278.64Q385.94 279.11 385.72 279.98Q385.51 280.86 385.17 281.97Q384.84 283.08 384.40 284.32Q383.95 285.56 383.49 286.74Q383.03 287.92 382.58 288.94Q382.14 289.96 381.79 290.63ZM395.38 291.46L395.38 291.46Q393.68 291.46 392.23 290.99Q390.78 290.51 389.70 289.56Q388.62 288.61 388.00 287.17Q387.38 285.73 387.38 283.80L387.38 283.80Q387.38 281.90 388.00 280.53Q388.62 279.16 389.62 278.28Q390.63 277.41 391.93 276.99Q393.22 276.57 394.58 276.57L394.58 276.57Q396.10 276.57 397.36 277.03Q398.61 277.49 399.52 278.30Q400.42 279.11 400.93 280.23Q401.43 281.35 401.43 282.68L401.43 282.68Q401.43 283.66 400.88 284.17Q400.34 284.69 399.36 284.84L399.36 284.84L392.24 285.90Q392.56 286.85 393.54 287.33Q394.52 287.80 395.79 287.80L395.79 287.80Q396.97 287.80 398.02 287.50Q399.07 287.20 399.73 286.80L399.73 286.80Q400.19 287.08 400.51 287.60Q400.83 288.12 400.83 288.70L400.83 288.70Q400.83 289.99 399.62 290.63L399.62 290.63Q398.70 291.12 397.54 291.29Q396.39 291.46 395.38 291.46ZM394.58 280.14L394.58 280.14Q393.89 280.14 393.38 280.37Q392.88 280.60 392.56 280.96Q392.24 281.32 392.09 281.77Q391.93 282.22 391.90 282.68L391.90 282.68L396.82 281.87Q396.74 281.29 396.19 280.72Q395.64 280.14 394.58 280.14ZM408.78 274.27L408.78 290.97Q408.46 291.03 407.84 291.13Q407.22 291.23 406.59 291.23L406.59 291.23Q405.95 291.23 405.45 291.14Q404.95 291.06 404.60 290.80Q404.25 290.54 404.07 290.09Q403.88 289.65 403.88 288.93L403.88 288.93L403.88 272.22Q404.20 272.16 404.82 272.06Q405.44 271.96 406.07 271.96L406.07 271.96Q406.70 271.96 407.21 272.05Q407.71 272.14 408.06 272.40Q408.40 272.65 408.59 273.10Q408.78 273.55 408.78 274.27L408.78 274.27ZM426.34 284.00L426.34 284.00Q426.34 285.79 425.80 287.18Q425.25 288.58 424.26 289.53Q423.26 290.48 421.88 290.97Q420.50 291.46 418.80 291.46L418.80 291.46Q417.10 291.46 415.72 290.94Q414.33 290.42 413.34 289.46Q412.35 288.49 411.80 287.11Q411.25 285.73 411.25 284.00L411.25 284.00Q411.25 282.30 411.80 280.92Q412.35 279.54 413.34 278.57Q414.33 277.61 415.72 277.09Q417.10 276.57 418.80 276.57L418.80 276.57Q420.50 276.57 421.88 277.10Q423.26 277.64 424.26 278.60Q425.25 279.57 425.80 280.95Q426.34 282.33 426.34 284.00ZM416.26 284.00L416.26 284.00Q416.26 285.76 416.94 286.69Q417.62 287.63 418.83 287.63L418.83 287.63Q420.04 287.63 420.68 286.68Q421.33 285.73 421.33 284.00L421.33 284.00Q421.33 282.27 420.67 281.34Q420.01 280.40 418.80 280.40L418.80 280.40Q417.59 280.40 416.93 281.34Q416.26 282.27 416.26 284.00ZM435.16 276.57L435.16 276.57Q436.88 276.57 438.37 277.02Q439.85 277.46 440.92 278.39Q441.98 279.31 442.59 280.70Q443.19 282.10 443.19 284.03L443.19 284.03Q443.19 285.87 442.67 287.26Q442.16 288.64 441.20 289.57Q440.25 290.51 438.92 290.97Q437.58 291.43 435.93 291.43L435.93 291.43Q434.70 291.43 433.63 291.06L433.63 291.06L433.63 295.84Q433.34 295.92 432.71 296.03Q432.08 296.13 431.41 296.13L431.41 296.13Q430.78 296.13 430.28 296.04Q429.77 295.95 429.43 295.69Q429.08 295.44 428.91 294.99Q428.73 294.54 428.73 293.82L428.73 293.82L428.73 280.00Q428.73 279.22 429.07 278.73Q429.40 278.24 429.97 277.84L429.97 277.84Q430.87 277.26 432.19 276.92Q433.52 276.57 435.16 276.57ZM435.21 287.57L435.21 287.57Q438.18 287.57 438.18 284.03L438.18 284.03Q438.18 282.19 437.45 281.29Q436.71 280.40 435.33 280.40L435.33 280.40Q434.78 280.40 434.35 280.53Q433.92 280.66 433.60 280.83L433.60 280.83L433.60 287.17Q433.95 287.34 434.35 287.46Q434.75 287.57 435.21 287.57ZM452.29 276.57L452.29 276.57Q453.47 276.57 454.61 276.90Q455.75 277.23 456.58 277.90L456.58 277.90Q457.45 277.32 458.53 276.95Q459.61 276.57 461.13 276.57L461.13 276.57Q462.23 276.57 463.28 276.86Q464.33 277.15 465.15 277.77Q465.97 278.39 466.46 279.41Q466.95 280.43 466.95 281.90L466.95 281.90L466.95 290.97Q466.66 291.06 466.04 291.14Q465.43 291.23 464.76 291.23L464.76 291.23Q464.13 291.23 463.63 291.14Q463.12 291.06 462.78 290.80Q462.43 290.54 462.24 290.09Q462.06 289.65 462.06 288.93L462.06 288.93L462.06 282.04Q462.06 281.18 461.57 280.79Q461.08 280.40 460.24 280.40L460.24 280.40Q459.84 280.40 459.38 280.59Q458.92 280.78 458.69 280.98L458.69 280.98Q458.72 281.09 458.72 281.19Q458.72 281.29 458.72 281.38L458.72 281.38L458.72 290.97Q458.40 291.06 457.78 291.14Q457.16 291.23 456.53 291.23L456.53 291.23Q455.89 291.23 455.39 291.14Q454.88 291.06 454.54 290.80Q454.19 290.54 454.01 290.09Q453.82 289.65 453.82 288.93L453.82 288.93L453.82 282.04Q453.82 281.18 453.29 280.79Q452.75 280.40 452.00 280.40L452.00 280.40Q451.49 280.40 451.11 280.56Q450.74 280.72 450.48 280.86L450.48 280.86L450.48 290.97Q450.19 291.06 449.57 291.14Q448.95 291.23 448.29 291.23L448.29 291.23Q447.66 291.23 447.15 291.14Q446.65 291.06 446.30 290.80Q445.96 290.54 445.77 290.09Q445.58 289.65 445.58 288.93L445.58 288.93L445.58 280.23Q445.58 279.45 445.91 278.99Q446.24 278.53 446.82 278.13L446.82 278.13Q447.80 277.44 449.25 277.00Q450.71 276.57 452.29 276.57ZM477.35 291.46L477.35 291.46Q475.65 291.46 474.20 290.99Q472.74 290.51 471.66 289.56Q470.58 288.61 469.96 287.17Q469.34 285.73 469.34 283.80L469.34 283.80Q469.34 281.90 469.96 280.53Q470.58 279.16 471.59 278.28Q472.60 277.41 473.89 276.99Q475.19 276.57 476.54 276.57L476.54 276.57Q478.07 276.57 479.32 277.03Q480.57 277.49 481.48 278.30Q482.39 279.11 482.89 280.23Q483.40 281.35 483.40 282.68L483.40 282.68Q483.40 283.66 482.85 284.17Q482.30 284.69 481.32 284.84L481.32 284.84L474.21 285.90Q474.53 286.85 475.51 287.33Q476.48 287.80 477.75 287.80L477.75 287.80Q478.93 287.80 479.98 287.50Q481.04 287.20 481.70 286.80L481.70 286.80Q482.16 287.08 482.48 287.60Q482.79 288.12 482.79 288.70L482.79 288.70Q482.79 289.99 481.58 290.63L481.58 290.63Q480.66 291.12 479.51 291.29Q478.36 291.46 477.35 291.46ZM476.54 280.14L476.54 280.14Q475.85 280.14 475.35 280.37Q474.84 280.60 474.53 280.96Q474.21 281.32 474.05 281.77Q473.89 282.22 473.86 282.68L473.86 282.68L478.79 281.87Q478.70 281.29 478.16 280.72Q477.61 280.14 476.54 280.14ZM494.63 288.93L494.63 282.13Q494.63 281.24 494.12 280.82Q493.62 280.40 492.76 280.40L492.76 280.40Q492.18 280.40 491.62 280.55Q491.06 280.69 490.65 280.98L490.65 280.98L490.65 290.97Q490.37 291.06 489.75 291.14Q489.13 291.23 488.47 291.23L488.47 291.23Q487.83 291.23 487.33 291.14Q486.82 291.06 486.48 290.80Q486.13 290.54 485.95 290.09Q485.76 289.65 485.76 288.93L485.76 288.93L485.76 280.29Q485.76 279.51 486.09 279.02Q486.42 278.53 487.00 278.13L487.00 278.13Q487.98 277.44 489.46 277.00Q490.94 276.57 492.76 276.57L492.76 276.57Q496.01 276.57 497.77 278.00Q499.52 279.42 499.52 281.96L499.52 281.96L499.52 290.97Q499.24 291.06 498.62 291.14Q498.00 291.23 497.34 291.23L497.34 291.23Q496.70 291.23 496.20 291.14Q495.69 291.06 495.35 290.80Q495.00 290.54 494.82 290.09Q494.63 289.65 494.63 288.93L494.63 288.93ZM507.44 281.84L507.44 286.19Q507.44 286.94 507.92 287.26Q508.40 287.57 509.26 287.57L509.26 287.57Q509.69 287.57 510.15 287.50Q510.61 287.43 510.96 287.31L510.96 287.31Q511.22 287.63 511.40 288.02Q511.59 288.41 511.59 288.96L511.59 288.96Q511.59 290.05 510.77 290.74Q509.95 291.43 507.88 291.43L507.88 291.43Q505.34 291.43 503.97 290.28Q502.61 289.13 502.61 286.54L502.61 286.54L502.61 274.21Q502.92 274.12 503.51 274.02Q504.10 273.92 504.77 273.92L504.77 273.92Q506.03 273.92 506.74 274.37Q507.44 274.81 507.44 276.25L507.44 276.25L507.44 278.10L511.22 278.10Q511.39 278.41 511.55 278.89Q511.71 279.36 511.71 279.94L511.71 279.94Q511.71 280.95 511.26 281.40Q510.81 281.84 510.07 281.84L510.07 281.84L507.44 281.84Z" data-element="slogan" data-text-path="" data-text="Fullstack Development" data-font-family="Baloo Bhai" fill="#353743" fill-opacity="1"></path></g></g></svg>